<?xml version="1.0" standalone="no"?>
<!DOCTYPE svg PUBLIC "-//W3C//DTD SVG 20010904//EN"
 "http://www.w3.org/TR/2001/REC-SVG-20010904/DTD/svg10.dtd">
<svg version="1.0" xmlns="http://www.w3.org/2000/svg"
 width="25.000000pt" height="25.000000pt" viewBox="0 0 25.000000 25.000000"
 preserveAspectRatio="xMidYMid meet">

<g transform="translate(0.000000,25.000000) scale(0.100000,-0.100000)"
fill="#000000" stroke="none">
<path d="M70 233 c-92 -47 -87 -180 7 -220 102 -42 202 58 160 160 -28 65
-104 93 -167 60z m105 -9 c33 -15 65 -65 65 -99 0 -35 -32 -84 -67 -100 -95
-46 -194 52 -148 148 16 35 63 66 98 67 11 0 34 -7 52 -16z"/>
<path d="M103 193 c-19 -7 -16 -50 3 -61 14 -8 13 -10 -9 -16 -25 -6 -42 -30
-31 -47 7 -12 111 -12 118 0 11 17 -6 41 -31 47 -22 6 -23 8 -9 16 19 11 21
39 4 56 -13 13 -24 14 -45 5z"/>
</g>
</svg>
