<?xml version="1.0" standalone="no"?>
<!DOCTYPE svg PUBLIC "-//W3C//DTD SVG 20010904//EN"
 "http://www.w3.org/TR/2001/REC-SVG-20010904/DTD/svg10.dtd">
<svg version="1.0" xmlns="http://www.w3.org/2000/svg"
 width="25.000000pt" height="25.000000pt" viewBox="0 0 25.000000 25.000000"
 preserveAspectRatio="xMidYMid meet">

<g transform="translate(0.000000,25.000000) scale(0.100000,-0.100000)"
fill="white" stroke="white">
<path d="M40 125 c0 -97 3 -126 13 -122 9 3 12 36 12 122 0 86 -3 119 -12 123
-10 3 -13 -26 -13 -123z"/>
<path d="M92 188 l3 -62 55 3 c30 1 56 4 58 6 2 2 -4 15 -13 29 -15 23 -15 27
-1 48 9 12 16 26 16 30 0 5 -27 8 -60 8 l-61 0 3 -62z"/>
</g>
</svg>
