<?xml version="1.0" standalone="no"?>
<!DOCTYPE svg PUBLIC "-//W3C//DTD SVG 20010904//EN"
 "http://www.w3.org/TR/2001/REC-SVG-20010904/DTD/svg10.dtd">
<svg version="1.0" xmlns="http://www.w3.org/2000/svg"
 width="25.000000pt" height="25.000000pt" viewBox="0 0 25.000000 25.000000"
 preserveAspectRatio="xMidYMid meet">

<g transform="translate(0.000000,25.000000) scale(0.100000,-0.100000)"
fill="white" stroke="white">
<path d="M40 216 c-6 -8 -10 -25 -9 -38 2 -13 -4 -34 -14 -48 -23 -33 -21 -48
8 -62 14 -6 25 -14 25 -18 0 -11 49 -30 76 -30 24 0 56 13 78 32 6 5 20 15 31
23 18 13 19 16 5 41 -8 15 -26 29 -39 31 -30 4 -27 1 -34 41 -6 30 -5 33 16
30 18 -2 22 -9 20 -37 -1 -22 2 -30 9 -23 14 14 6 53 -13 65 -9 6 -25 7 -35 2
-26 -11 -64 -12 -70 -3 -8 13 -41 9 -54 -6z m43 -28 c-7 -41 -8 -42 -28 -35
-15 6 -21 48 -8 60 3 4 14 7 24 7 15 0 17 -6 12 -32z m64 10 c11 -14 25 -64
16 -55 -7 8 -32 -16 -26 -25 2 -5 -4 -8 -13 -8 -10 0 -15 3 -11 6 7 7 -15 34
-24 28 -11 -6 4 51 15 58 16 11 32 10 43 -4z m-102 -59 c-4 -6 -1 -10 6 -8 44
5 47 -1 18 -31 -45 -44 -79 -23 -43 28 15 22 31 32 19 11z m187 -23 c28 -40
-13 -53 -50 -16 -24 23 -26 30 -13 33 22 4 55 -4 63 -17z m-54 -19 c18 -12 14
-45 -7 -57 -60 -32 -142 15 -100 57 12 12 88 12 107 0z"/>
</g>
</svg>
