<?xml version="1.0" standalone="no"?>
<!DOCTYPE svg PUBLIC "-//W3C//DTD SVG 20010904//EN"
 "http://www.w3.org/TR/2001/REC-SVG-20010904/DTD/svg10.dtd">
<svg version="1.0" xmlns="http://www.w3.org/2000/svg"
 width="25.000000pt" height="25.000000pt" viewBox="0 0 25.000000 25.000000"
 preserveAspectRatio="xMidYMid meet">

<g transform="translate(0.000000,25.000000) scale(0.100000,-0.100000)"
fill="white" stroke="white">
<path d="M44 206 c-29 -29 -34 -41 -34 -81 0 -40 5 -52 34 -81 49 -49 113 -49
162 0 29 29 34 41 34 81 0 40 -5 52 -34 81 -29 29 -41 34 -81 34 -40 0 -52 -5
-81 -34z m62 -54 c1 -7 0 -8 -3 -2 -7 15 -43 12 -43 -4 0 -8 10 -16 23 -18 34
-5 30 -42 -5 -46 -22 -3 -28 1 -27 15 0 10 3 13 6 6 7 -18 43 -16 43 2 0 9 -9
15 -25 15 -20 0 -25 5 -25 26 0 22 4 25 27 22 14 -2 28 -9 29 -16z m76 5 c17
15 18 14 16 -33 -1 -37 -2 -41 -5 -16 -4 27 -7 31 -18 22 -10 -8 -15 -8 -22 2
-5 9 -10 2 -14 -22 -6 -32 -6 -31 -8 15 -1 46 0 48 16 32 16 -15 18 -15 35 0z"/>
</g>
</svg>
