<?xml version="1.0" standalone="no"?>
<!DOCTYPE svg PUBLIC "-//W3C//DTD SVG 20010904//EN"
 "http://www.w3.org/TR/2001/REC-SVG-20010904/DTD/svg10.dtd">
<svg version="1.0" xmlns="http://www.w3.org/2000/svg"
 width="25.000000pt" height="25.000000pt" viewBox="0 0 25.000000 25.000000"
 preserveAspectRatio="xMidYMid meet">

<g transform="translate(0.000000,25.000000) scale(0.100000,-0.100000)"
fill="#000000" stroke="none">
<path d="M108 243 c12 -2 30 -2 40 0 9 3 -1 5 -23 4 -22 0 -30 -2 -17 -4z"/>
<path d="M34 208 c-10 -12 -14 -18 -8 -15 14 8 26 -52 14 -68 -4 -5 -10 -25
-12 -43 -3 -23 1 -37 15 -50 11 -9 17 -11 13 -4 -5 8 1 12 18 12 14 0 28 5 32
11 4 8 9 7 15 -2 5 -9 8 22 8 76 0 50 -3 84 -6 78 -4 -10 -9 -10 -25 1 -11 8
-27 12 -36 9 -10 -4 -13 -2 -8 5 12 19 1 14 -20 -10z m75 -34 c6 -14 11 -37
11 -51 0 -26 -1 -26 -14 -7 -8 10 -13 30 -10 44 3 20 3 21 -4 6 -8 -18 -9 -18
-15 -3 -3 9 -2 17 4 17 6 0 7 5 3 12 -5 7 -11 5 -21 -7 -7 -11 -13 -14 -13 -9
0 16 21 33 35 28 7 -3 17 -16 24 -30z m-9 -95 c0 -11 -7 -22 -15 -25 -21 -8
-45 14 -44 40 1 19 2 18 8 -4 8 -30 41 -41 41 -13 -1 10 -7 29 -15 43 -22 38
-18 49 5 12 11 -18 20 -42 20 -53z m-20 5 c0 -8 -4 -12 -10 -9 -5 3 -10 13
-10 21 0 8 5 12 10 9 6 -3 10 -13 10 -21z"/>
<path d="M195 126 c0 -99 1 -104 18 -89 19 18 23 28 7 18 -6 -4 -10 22 -10 70
0 58 3 74 13 69 6 -4 3 2 -7 14 -11 12 -20 22 -20 22 -1 0 -1 -47 -1 -104z"/>
<path d="M144 125 c0 -50 1 -80 3 -68 3 13 11 23 20 23 10 0 14 -6 10 -20 -3
-11 -1 -20 4 -20 11 0 10 75 -1 110 -6 20 -8 21 -9 5 -1 -28 -19 -6 -23 30 -2
17 -4 -10 -4 -60z m31 -14 c-8 -14 -25 -14 -25 0 0 5 5 7 10 4 6 -3 10 -1 10
6 0 7 3 10 6 6 3 -3 3 -10 -1 -16z"/>
<path d="M181 194 c0 -11 3 -14 6 -6 3 7 2 16 -1 19 -3 4 -6 -2 -5 -13z"/>
<path d="M3 125 c0 -22 2 -30 4 -17 2 12 2 30 0 40 -3 9 -5 -1 -4 -23z"/>
<path d="M243 125 c0 -22 2 -30 4 -17 2 12 2 30 0 40 -3 9 -5 -1 -4 -23z"/>
<path d="M108 3 c12 -2 30 -2 40 0 9 3 -1 5 -23 4 -22 0 -30 -2 -17 -4z"/>
</g>
</svg>
