<?xml version="1.0" standalone="no"?>
<!DOCTYPE svg PUBLIC "-//W3C//DTD SVG 20010904//EN"
 "http://www.w3.org/TR/2001/REC-SVG-20010904/DTD/svg10.dtd">
<svg version="1.0" xmlns="http://www.w3.org/2000/svg"
 width="25.000000pt" height="25.000000pt" viewBox="0 0 25.000000 25.000000"
 preserveAspectRatio="xMidYMid meet">

<g transform="translate(0.000000,25.000000) scale(0.100000,-0.100000)"
fill="white" stroke="white">
<path d="M25 221 c3 -5 1 -12 -5 -16 -15 -9 -12 -25 5 -25 8 0 15 9 15 20 0
17 7 20 41 20 36 0 40 -2 34 -20 -5 -14 -2 -20 10 -20 12 0 15 6 10 20 -6 18
-2 20 34 20 34 0 41 -3 41 -20 0 -11 7 -20 15 -20 17 0 20 16 5 25 -6 4 -8 11
-5 16 4 5 -37 9 -100 9 -63 0 -104 -4 -100 -9z"/>
<path d="M50 195 c0 -8 5 -15 10 -15 6 0 10 7 10 15 0 8 -4 15 -10 15 -5 0
-10 -7 -10 -15z"/>
<path d="M80 195 c0 -8 4 -15 9 -15 5 0 11 7 15 15 3 9 0 15 -9 15 -8 0 -15
-7 -15 -15z"/>
<path d="M146 195 c4 -8 10 -15 15 -15 5 0 9 7 9 15 0 8 -7 15 -15 15 -9 0
-12 -6 -9 -15z"/>
<path d="M180 195 c0 -8 5 -15 10 -15 6 0 10 7 10 15 0 8 -4 15 -10 15 -5 0
-10 -7 -10 -15z"/>
<path d="M20 109 l0 -49 108 2 107 2 -105 6 -105 6 103 2 102 2 -2 38 c-1 36
-1 36 -5 5 l-4 -33 -96 0 c-83 0 -94 2 -89 16 3 9 6 22 6 30 0 8 9 14 23 13
16 -1 18 -2 5 -6 -10 -2 -18 -9 -18 -14 0 -5 8 -9 18 -10 11 -1 9 -4 -8 -9
-17 -5 3 -8 63 -9 l87 -1 0 30 0 31 -95 -2 -95 -2 0 -48z m97 35 c-3 -3 -12
-4 -19 -1 -8 3 -5 6 6 6 11 1 17 -2 13 -5z m33 -24 c0 -5 -14 -10 -31 -10 -17
0 -28 4 -24 10 3 6 17 10 31 10 13 0 24 -4 24 -10z"/>
<path d="M110 41 c0 -5 -10 -12 -22 -14 -13 -2 6 -4 42 -4 36 0 55 2 43 4 -13
2 -23 9 -23 14 0 5 -9 9 -20 9 -11 0 -20 -4 -20 -9z"/>
</g>
</svg>
