<?xml version="1.0" standalone="no"?>
<!DOCTYPE svg PUBLIC "-//W3C//DTD SVG 20010904//EN"
 "http://www.w3.org/TR/2001/REC-SVG-20010904/DTD/svg10.dtd">
<svg version="1.0" xmlns="http://www.w3.org/2000/svg"
 width="25.000000pt" height="25.000000pt" viewBox="0 0 25.000000 25.000000"
 preserveAspectRatio="xMidYMid meet">

<g transform="translate(0.000000,25.000000) scale(0.100000,-0.100000)"
fill="white" stroke="white">
<path d="M10 160 c0 -38 4 -50 15 -50 8 0 15 -7 15 -16 0 -14 2 -14 22 0 13 9
43 16 70 16 l48 0 0 50 0 50 -85 0 -85 0 0 -50z m108 13 c-16 -2 -40 -2 -55 0
-16 2 -3 4 27 4 30 0 43 -2 28 -4z m-20 -30 c-10 -2 -28 -2 -40 0 -13 2 -5 4
17 4 22 1 32 -1 23 -4z"/>
<path d="M200 115 c0 -23 -4 -25 -45 -25 -25 0 -45 -4 -45 -10 0 -5 14 -10 31
-10 17 0 39 -5 50 -10 26 -15 49 8 49 49 0 24 -4 31 -20 31 -15 0 -20 -7 -20
-25z"/>
</g>
</svg>
