<?xml version="1.0" standalone="no"?>
<!DOCTYPE svg PUBLIC "-//W3C//DTD SVG 20010904//EN"
 "http://www.w3.org/TR/2001/REC-SVG-20010904/DTD/svg10.dtd">
<svg version="1.0" xmlns="http://www.w3.org/2000/svg"
 width="24.000000pt" height="25.000000pt" viewBox="0 0 24.000000 25.000000"
 preserveAspectRatio="xMidYMid meet">

<g transform="translate(0.000000,25.000000) scale(0.100000,-0.100000)"
fill="white" stroke="white">
<path d="M110 235 c0 -8 -6 -15 -14 -15 -20 0 -46 -39 -46 -70 0 -44 -20 -98
-38 -103 -9 -3 39 -5 108 -5 69 0 117 2 108 5 -18 5 -38 59 -38 103 0 31 -26
70 -46 70 -8 0 -14 7 -14 15 0 8 -4 15 -10 15 -5 0 -10 -7 -10 -15z"/>
<path d="M103 18 c2 -7 10 -13 17 -13 7 0 15 6 18 13 2 7 -5 12 -18 12 -13 0
-20 -5 -17 -12z"/>
</g>
</svg>
