<?xml version="1.0" standalone="no"?>
<!DOCTYPE svg PUBLIC "-//W3C//DTD SVG 20010904//EN"
 "http://www.w3.org/TR/2001/REC-SVG-20010904/DTD/svg10.dtd">
<svg version="1.0" xmlns="http://www.w3.org/2000/svg"
 width="32.000000pt" height="25.000000pt" viewBox="0 0 32.000000 25.000000"
 preserveAspectRatio="xMidYMid meet">

<g transform="translate(0.000000,25.000000) scale(0.100000,-0.100000)"
fill="white" stroke="white">
<path d="M7 244 c-12 -13 -8 -179 5 -192 7 -7 39 -12 75 -12 48 0 63 -3 63
-14 0 -9 -13 -16 -32 -19 -18 -2 1 -4 42 -4 41 0 60 2 43 4 -20 3 -33 10 -33
19 0 11 15 14 64 14 42 0 67 5 75 14 8 9 11 46 9 103 l-3 88 -151 3 c-82 1
-153 -1 -157 -4z m301 -96 l3 -88 -151 0 -150 0 0 83 c0 46 3 87 7 91 4 3 70
5 147 4 l141 -3 3 -87z"/>
<path d="M130 151 c0 -23 2 -41 5 -41 2 0 18 8 35 19 l31 18 -23 15 c-49 31
-48 31 -48 -11z"/>
</g>
</svg>
